<svg xmlns="http://www.w3.org/2000/svg" xmlns:xlink="http://www.w3.org/1999/xlink" viewBox="0,0,256,256" width="52px" height="52px" fill-rule="nonzero"><g fill="#ffffff" fill-rule="nonzero" stroke="none" stroke-width="1" stroke-linecap="butt" stroke-linejoin="miter" stroke-miterlimit="10" stroke-dasharray="" stroke-dashoffset="0" font-family="none" font-weight="none" font-size="none" text-anchor="none" style="mix-blend-mode: normal"><g transform="scale(9.84615,9.84615)"><path d="M3,2c-1.65625,0 -3,1.34375 -3,3v17c0,1.65625 1.34375,3 3,3h20c1.65625,0 3,-1.34375 3,-3v-14c0,-1.65625 -1.34375,-3 -3,-3h-12c0,-1.65625 -1.34375,-3 -3,-3zM3,7h20c0.55078,0 1,0.44922 1,1v14c0,0.55078 -0.44922,1 -1,1h-20c-0.55078,0 -1,-0.44922 -1,-1v-14c0,-0.55078 0.44922,-1 1,-1z"></path></g></g></svg>