<?xml version="1.0" encoding="UTF-8" standalone="no"?>
<!-- Generator: Adobe Illustrator 19.0.0, SVG Export Plug-In . SVG Version: 6.00 Build 0)  -->

<svg
   version="1.1"
   id="Layer_1"
   x="0px"
   y="0px"
   viewBox="0 0 330 330"
   style="enable-background:new 0 0 330 330;"
   xml:space="preserve"
   sodipodi:docname="lock-open.svg"
   inkscape:version="1.2.1 (9c6d41e410, 2022-07-14, custom)"
   xmlns:inkscape="http://www.inkscape.org/namespaces/inkscape"
   xmlns:sodipodi="http://sodipodi.sourceforge.net/DTD/sodipodi-0.dtd"
   xmlns="http://www.w3.org/2000/svg"
   xmlns:svg="http://www.w3.org/2000/svg"><defs
   id="defs37" /><sodipodi:namedview
   id="namedview35"
   pagecolor="#505050"
   bordercolor="#eeeeee"
   borderopacity="1"
   inkscape:showpageshadow="0"
   inkscape:pageopacity="0"
   inkscape:pagecheckerboard="0"
   inkscape:deskcolor="#505050"
   showgrid="false"
   inkscape:zoom="0.91388195"
   inkscape:cx="163.58787"
   inkscape:cy="321.15745"
   inkscape:window-width="948"
   inkscape:window-height="1032"
   inkscape:window-x="2883"
   inkscape:window-y="39"
   inkscape:window-maximized="1"
   inkscape:current-layer="Layer_1" />
<g
   id="XMLID_516_">
	<path
   id="XMLID_517_"
   d="M15,160c8.284,0,15-6.716,15-15V85c0-30.327,24.673-55,55-55c30.327,0,55,24.673,55,55v45h-25   c-8.284,0-15,6.716-15,15v170c0,8.284,6.716,15,15,15h200c8.284,0,15-6.716,15-15V145c0-8.284-6.716-15-15-15H170V85   c0-46.869-38.131-85-85-85S0,38.131,0,85v60C0,153.284,6.716,160,15,160z" />
</g>
<g
   id="g4">
</g>
<g
   id="g6">
</g>
<g
   id="g8">
</g>
<g
   id="g10">
</g>
<g
   id="g12">
</g>
<g
   id="g14">
</g>
<g
   id="g16">
</g>
<g
   id="g18">
</g>
<g
   id="g20">
</g>
<g
   id="g22">
</g>
<g
   id="g24">
</g>
<g
   id="g26">
</g>
<g
   id="g28">
</g>
<g
   id="g30">
</g>
<g
   id="g32">
</g>
<path
   style="fill:#ffffff;stroke-width:29.2062"
   d="m 106.18528,327.04539 c -6.971532,-5.86615 -6.61022,-0.56657 -6.608355,-96.92851 0.0015,-81.49058 0.140531,-88.13883 1.914905,-91.6186 3.7265,-7.30811 6.26009,-8.242 23.44768,-8.6429 l 15.36451,-0.35838 -0.51886,-26.99745 C 139.3728,81.044206 138.87771,74.266644 137.37335,69.48381 130.86289,48.785055 113.5886,34.080579 92.104285,30.949209 67.578474,27.374536 43.310796,41.975439 33.704747,66.085908 c -2.321307,5.826307 -2.472982,8.078945 -3.028513,44.978762 -0.584264,38.80836 -0.587315,38.84878 -3.209509,42.52534 -4.757023,6.66979 -12.679334,8.40124 -19.8920317,4.34748 -7.69292794,-4.32368 -7.748593,-4.69954 -7.30990286,-49.35797 C 0.69522415,64.761578 0.90702065,63.153519 8.2244255,48.146262 33.464694,-3.6189765 101.13374,-16.379652 142.95268,22.739913 c 11.65354,10.901316 20.48655,25.607313 24.6957,41.11568 1.94332,7.160013 2.34323,12.494767 2.77851,37.065367 l 0.50847,28.70157 74.75783,0.29561 c 73.65394,0.29125 74.80342,0.32908 77.84662,2.56186 1.69885,1.24644 3.94975,3.95467 5.00202,6.01828 1.77407,3.47918 1.91334,10.10086 1.91491,91.05229 0.002,95.51782 0.25529,91.71945 -6.49887,97.4027 l -3.51544,2.95805 h -105.4256 -105.4256 z"
   id="path389" /></svg>
