<?xml version="1.0" encoding="UTF-8" standalone="no"?>
<!-- Generator: Adobe Illustrator 19.0.0, SVG Export Plug-In . SVG Version: 6.00 Build 0)  -->

<svg
   version="1.1"
   id="Layer_1"
   x="0px"
   y="0px"
   viewBox="0 0 330 330"
   style="enable-background:new 0 0 330 330;"
   xml:space="preserve"
   sodipodi:docname="lock-open.svg"
   inkscape:version="1.2.1 (9c6d41e410, 2022-07-14, custom)"
   xmlns:inkscape="http://www.inkscape.org/namespaces/inkscape"
   xmlns:sodipodi="http://sodipodi.sourceforge.net/DTD/sodipodi-0.dtd"
   xmlns="http://www.w3.org/2000/svg"
   xmlns:svg="http://www.w3.org/2000/svg"><defs
   id="defs37" /><sodipodi:namedview
   id="namedview35"
   pagecolor="#505050"
   bordercolor="#eeeeee"
   borderopacity="1"
   inkscape:showpageshadow="0"
   inkscape:pageopacity="0"
   inkscape:pagecheckerboard="0"
   inkscape:deskcolor="#505050"
   showgrid="false"
   inkscape:zoom="1.4142136"
   inkscape:cx="136.82516"
   inkscape:cy="165.10943"
   inkscape:window-width="948"
   inkscape:window-height="1032"
   inkscape:window-x="2883"
   inkscape:window-y="39"
   inkscape:window-maximized="1"
   inkscape:current-layer="Layer_1" />
<g
   id="XMLID_504_"
   style="fill:#ffffff">
	<path
   id="XMLID_505_"
   d="M65,330h200c8.284,0,15-6.716,15-15V145c0-8.284-6.716-15-15-15h-15V85c0-46.869-38.131-85-85-85   S80,38.131,80,85v45H65c-8.284,0-15,6.716-15,15v170C50,323.284,56.716,330,65,330z M207.481,219.356l-42.5,42.5   c-2.929,2.929-6.768,4.394-10.606,4.394s-7.678-1.465-10.606-4.394l-21.25-21.25c-5.858-5.858-5.858-15.354,0-21.213   c5.857-5.858,15.355-5.858,21.213,0l10.644,10.643l31.894-31.893c5.857-5.858,15.355-5.858,21.213,0   C213.34,204.002,213.34,213.498,207.481,219.356z M110,85c0-30.327,24.673-55,55-55s55,24.673,55,55v45H110V85z"
   style="fill:#ffffff" />
</g>
<g
   id="g4">
</g>
<g
   id="g6">
</g>
<g
   id="g8">
</g>
<g
   id="g10">
</g>
<g
   id="g12">
</g>
<g
   id="g14">
</g>
<g
   id="g16">
</g>
<g
   id="g18">
</g>
<g
   id="g20">
</g>
<g
   id="g22">
</g>
<g
   id="g24">
</g>
<g
   id="g26">
</g>
<g
   id="g28">
</g>
<g
   id="g30">
</g>
<g
   id="g32">
</g>
<path
   style="fill:#000000;stroke:none;stroke-width:26.691"
   id="path453"
   d="m 144.4328,239.12651 c 0.67002,2.2935 0.49422,4.71095 0.76836,7.05977 0.0592,0.50684 0.16165,1.00768 0.24247,1.51153 2.42172,5.45909 0.95101,2.75874 13.635,7.91704 0.50613,0.20584 0.97897,-0.52662 1.35376,-0.92419 0.50886,-0.53978 0.85791,-1.2114 1.25197,-1.83989 1.04274,-1.66306 1.37507,-2.42102 2.25821,-4.1693 0.87891,-1.83683 0.87182,-1.81022 1.68032,-3.54097 0.18983,-0.40636 0.34821,-0.82862 0.56601,-1.2207 0.12542,-0.2258 0.24896,-0.4739 0.45888,-0.62438 0.0816,-0.0585 0.37753,0.13397 0.28765,0.0892 -4.30197,-2.14034 -8.61821,-4.25188 -12.92732,-6.37782 0.58818,1.35616 0.8046,2.83517 1.49143,4.15404 2.55579,4.90767 13.06736,8.58918 14.8658,9.59829 0.62212,0.0256 1.24424,0.0512 1.86637,0.0768 0,0 -10.4444,-7.84266 -10.4444,-7.84266 v 0 c -0.64143,-0.17514 -1.28287,-0.35028 -1.9243,-0.52542 3.35853,2.02257 6.70259,4.06939 10.07561,6.06772 0.39285,0.23274 -0.78418,-0.47523 -1.13309,-0.76977 -1.03262,-0.87171 -1.74603,-2.00243 -1.84062,-3.37309 -0.022,-0.31855 0.0662,-0.63518 0.0992,-0.95278 -23.62257,-13.41132 -12.74965,-11.8157 -12.90282,-6.05274 -0.0463,1.74281 -0.5575,3.42042 -1.21322,5.02128 -0.74748,1.44464 -1.16142,2.52905 -2.34216,3.69373 -0.43736,0.43142 -0.94885,0.80175 -1.5035,1.06587 -0.37713,0.17959 -1.56912,-0.009 -1.23066,0.23614 5.31977,3.84736 15.2138,9.01947 9.75505,6.14759 -0.14925,-0.46525 -0.34971,-0.91707 -0.44775,-1.39574 -0.34244,-1.67189 -0.20061,-3.97426 0.1901,-5.6424 0.0545,-0.23276 0.15076,-0.45373 0.22614,-0.68059 0,0 -13.16254,-6.70665 -13.16254,-6.70665 z" /><path
   style="fill:#ffffff;stroke:none;stroke-width:26.691"
   id="path455"
   d="m 187.08165,210.14553 c -0.85936,1.65755 -1.15958,3.53277 -1.89807,5.23605 -0.7343,1.69363 -1.66822,3.29356 -2.5115,4.93565 -1.0224,1.99086 -1.99464,4.00895 -3.08549,5.96313 -2.57174,4.60707 -3.92727,6.46102 -6.79491,10.75183 -3.59026,4.95939 -1.90708,2.67813 -5.03245,6.85633 0,0 9.87575,5.58443 9.87575,5.58443 v 0 c 1.19207,-5.12678 0.36183,-2.40907 2.69175,-8.08898 0.888,-1.78903 1.69886,-3.61848 2.66401,-5.3671 2.5294,-4.58267 4.1848,-7.05048 7.60314,-11.02407 2.75115,-3.19802 5.04521,-5.52643 8.99789,-7.03647 0,0 -12.51012,-7.8108 -12.51012,-7.8108 z" /><path
   style="fill:#ffffff;stroke:none;stroke-width:26.691"
   id="path457"
   d="m 200.19616,217.80947 c -0.48963,0.92118 -0.91194,1.88143 -1.46889,2.76354 -0.851,1.34781 -1.80261,2.63013 -2.74727,3.91404 -1.25785,1.7096 -2.48891,3.44378 -3.85902,5.0648 -2.89786,3.42854 -6.14088,6.61185 -9.56345,9.51369 -1.39851,1.18574 -2.89866,2.24609 -4.348,3.36913 -1.19654,0.75198 -2.39308,1.50396 -3.58962,2.25594 0,0 9.19916,5.71615 9.19916,5.71615 v 0 c 0.80266,-1.01311 1.60531,-2.02622 2.40797,-3.03932 2.73509,-3.32247 4.51417,-5.62639 7.63332,-8.74638 3.51857,-3.51954 6.52915,-6.02659 10.5083,-8.97855 1.39579,-1.03548 2.82223,-2.03355 4.29782,-2.95175 1.01673,-0.63267 2.11204,-1.12932 3.16806,-1.69399 0,0 -11.63838,-7.1873 -11.63838,-7.1873 z" /><path
   style="fill:#000000;stroke:none;stroke-width:26.691"
   id="path459"
   d="m 192.15823,217.15356 c -0.57446,1.09094 -1.04319,2.24448 -1.72339,3.27282 -2.22325,3.3612 -4.2158,5.39268 -7.16555,8.14474 -1.76139,1.64334 -5.19428,4.49967 -7.23762,5.98852 -0.84043,0.61237 -1.73844,1.14155 -2.60767,1.71232 -0.56888,0.31065 -1.13776,0.62129 -1.70664,0.93193 0,0 11.37275,6.90363 11.37275,6.90363 v 0 c 0.19468,-0.51998 0.38935,-1.03996 0.58403,-1.55994 0.48845,-0.79787 0.91708,-1.63559 1.46533,-2.39361 1.42248,-1.96676 4.28287,-5.18116 5.89575,-6.80715 3.055,-3.07981 5.02591,-4.86529 8.74919,-7.14025 1.24846,-0.76282 2.62056,-1.30187 3.93083,-1.9528 0,0 -11.55701,-7.10021 -11.55701,-7.10021 z" /><path
   style="fill:#ffffff;stroke:none;stroke-width:26.691"
   id="path461"
   d="m 190.8785,218.03406 c -0.17799,0.3993 -0.33587,0.80818 -0.53395,1.1979 -0.31189,0.61363 -0.67319,1.20104 -0.99472,1.80967 -0.48497,0.91805 -0.91437,1.8657 -1.42456,2.76998 -0.95388,1.69073 -3.11205,5.08434 -4.20473,6.60667 -0.75893,1.05734 -1.59863,2.0543 -2.39794,3.08146 -1.28507,1.48582 -2.65642,3.17199 -4.1162,4.51738 -0.47407,0.43693 -0.9593,0.87738 -1.51913,1.19715 -0.31152,0.17794 -1.35375,0.0873 -1.04282,0.26624 13.24714,7.62389 11.94633,10.78467 12.85396,3.47586 1.78738,-6.05892 4.91257,-11.58211 8.03812,-17.02703 1.41655,-2.46774 2.80903,-4.95243 4.34516,-7.34755 3.21372,-5.01079 5.43576,-7.70018 8.99738,-12.31532 1.23093,-1.43334 2.39471,-2.9272 3.69279,-4.30002 0.45593,-0.48218 3.58691,-3.63838 4.93964,-3.91037 0.37223,-0.0748 1.30639,0.76825 0.95962,0.61363 -13.39454,-5.97265 -11.82383,-10.29364 -12.83873,-2.65274 -0.8301,3.02272 -2.10259,5.89054 -3.67256,8.59746 -0.33447,0.5767 -0.7052,1.13188 -1.07634,1.6857 -0.20826,0.31077 -0.49833,0.57008 -0.66107,0.90692 -0.12861,0.26619 -0.13006,0.57679 -0.19509,0.86518 4.52863,2.02499 8.90498,4.43233 13.58588,6.07495 0.44008,0.15443 0.67261,-0.64747 1.03139,-0.94546 0.11509,-0.0956 1.62308,-1.35787 2.05789,-1.20509 0.27339,0.096 0.54122,0.95372 0.28317,0.8219 -4.15129,-2.12069 -8.11195,-4.59549 -12.16792,-6.89323 -0.0811,0.60789 -0.0821,1.23194 -0.24331,1.82365 -0.89675,3.29229 -2.69029,6.23076 -4.75142,8.91254 -0.61116,0.79519 -1.25046,1.57194 -1.94392,2.2965 -0.51814,0.54139 -1.12121,0.99458 -1.68182,1.49187 -0.40554,0.20254 -0.76343,0.59697 -1.2166,0.60763 -0.23457,0.006 -0.62387,-0.67413 -0.41398,-0.56928 4.35756,2.1767 8.34218,5.16684 12.92454,6.81861 0.64659,0.23307 0.62535,-1.22917 1.01927,-1.7924 0.90204,-1.28972 1.74377,-2.02701 2.84212,-3.10648 4.521,-3.95103 3.04935,-2.12271 -11.42727,-8.92198 -0.66821,-0.31385 -1.03909,1.05581 -1.62559,1.50416 -2.31937,1.77302 -5.03419,2.96267 -7.65833,4.19196 -0.4422,0.12503 -2.93791,1.01944 -3.71847,0.66934 -0.3291,-0.14762 -0.82052,-1.12059 -0.49696,-0.9612 4.10701,2.02319 7.64409,5.30482 12.02355,6.63941 0.91036,0.27743 0.30345,-1.88862 0.61362,-2.78835 0.44777,-1.29889 1.09984,-2.51809 1.64976,-3.77714 2.13583,-4.11548 4.64269,-8.02301 7.17149,-11.90392 0.82284,-1.26281 2.73036,-4.02198 3.53336,-5.48317 0.29485,-0.53653 0.50209,-1.11673 0.75314,-1.6751 -0.58767,-5.86136 -0.0848,-4.32612 -13.72555,-7.21335 -1.12693,-0.23853 -1.42149,1.81452 -2.18173,2.67991 -1.4574,1.65896 -3.81974,4.05207 -5.45036,5.55329 -0.80182,0.73819 -1.65112,1.42306 -2.47668,2.13459 -0.63229,0.49903 -1.25144,1.01518 -1.89688,1.49708 -4.70743,3.5147 -6.69595,0.44978 11.47217,8.2734 0.61547,0.26503 0.84933,-1.04257 1.34183,-1.49698 1.53152,-1.41307 2.68346,-2.04334 4.43988,-3.17572 1.63478,-0.89012 2.53581,-1.5024 4.2794,-2.03457 4.90175,-1.49609 12.36829,3.72697 -10.88916,-6.70715 -0.26188,-0.11749 0.0155,0.60243 -0.12673,0.85173 -0.63174,1.10706 -1.43996,2.10362 -2.15994,3.15543 -2.95671,2.64453 -3.68049,3.55805 -7.09301,5.57133 -1.0777,0.63581 -2.19706,1.22031 -3.37369,1.64601 -0.86508,0.31298 -1.79099,0.66633 -2.70392,0.55283 -0.59376,-0.0738 -1.98145,-1.32814 -1.44248,-1.06831 3.8937,1.87713 7.68754,3.95471 11.53131,5.93206 0.12064,-0.61938 0.13293,-1.27014 0.36192,-1.85815 0.82532,-2.1193 2.49072,-3.95627 4.34933,-5.22074 0.38707,-0.26333 0.77091,-0.66558 1.23905,-0.66126 0.26189,0.002 0.26655,0.45092 0.39982,0.67638 -4.41715,-2.02116 -8.44832,-5.33804 -13.25144,-6.06347 -1.43475,-0.21669 -1.40067,2.55115 -2.25934,3.72082 -1.08642,1.4799 -2.30333,2.8639 -3.55829,4.20386 -2.22272,2.37328 -5.43697,5.22927 -7.9885,7.2916 -1.1004,0.88942 -2.25876,1.70463 -3.38814,2.55695 -0.88183,0.45898 -3.42226,0.75652 -2.64549,1.37692 3.36516,2.6877 7.42118,4.59455 11.56981,5.75079 0.81115,0.22608 -0.20143,-1.70861 1.2e-4,-2.52619 0.37568,-1.52389 1.01145,-2.98101 1.70469,-4.38913 1.91461,-3.88898 3.46006,-5.65447 6.01349,-9.10012 1.00976,-1.19025 1.98844,-2.40759 3.02928,-3.57076 1.79118,-2.00167 2.16915,-2.50985 4.14945,-3.77026 0.2571,-0.16363 1.08579,-0.24917 0.82159,-0.40106 -13.1101,-7.53685 -10.39757,-10.70468 -13.89199,-5.74431 -0.27117,0.28823 -0.50015,0.62302 -0.81352,0.86471 -0.19604,0.15118 -0.45582,0.19332 -0.68372,0.28998 4.24129,2.36398 8.2374,5.23492 12.72388,7.09193 0.52195,0.21605 0.23037,-1.12104 0.49205,-1.62167 0.74411,-1.4236 1.81404,-2.34169 2.91824,-3.46321 0.84454,-0.62856 1.75804,-1.48453 2.84559,-1.73193 0.28528,-0.0649 0.6118,-0.0472 0.87375,0.0831 0.19199,0.0955 0.55101,0.63323 0.3622,0.53161 -11.06275,-5.9539 -15.99626,-9.90165 -12.02429,-6.74116 4.30245,2.53679 8.40258,5.4532 12.90735,7.61038 0.41815,0.20024 0.6606,-0.654 1.02747,-0.93746 1.02091,-0.78881 2.47652,-1.5794 3.73538,-1.89935 0.26322,-0.0669 0.5413,-0.0452 0.81195,-0.0677 -4.18843,-2.5187 -8.2086,-5.34113 -12.56529,-7.55609 -0.31367,-0.15947 -0.15128,0.69624 -0.3158,1.00729 -0.35309,0.66756 -0.76256,1.30879 -1.225,1.90583 -0.94109,1.21498 -2.39462,2.61462 -3.58765,3.58924 -0.50641,0.41371 -1.06108,0.76455 -1.59162,1.14683 -0.35388,0.11197 -1.37037,0.12987 -1.06164,0.33592 4.04825,2.7019 8.11218,5.49829 12.60552,7.36873 0.60385,0.25136 0.50476,-1.21521 0.86408,-1.76176 0.5862,-0.89163 1.23421,-1.74864 1.95881,-2.53196 1.80495,-1.95124 3.47433,-3.11706 5.5525,-4.73312 -3.00633,-1.5688 5.22731,-1.34064 4.01983,-2.30344 -3.75439,-2.99362 -7.73983,-5.87209 -12.1899,-7.67599 -0.79052,-0.32045 -0.82241,1.49604 -1.28071,2.21547 -3.27958,5.14816 -3.42151,5.01159 -7.72173,10.51427 -10.00275,11.6751 -20.07246,23.36835 -31.32357,33.87667 -1.02136,0.95394 -2.09638,1.84875 -3.14457,2.77312 -3.86283,5.21092 -2.83816,2.86115 12.26045,8.24262 0.91329,0.32551 1.77312,-0.78664 2.67606,-1.13984 1.46072,-0.57138 4.05355,-1.54529 5.68448,-1.70353 0.67464,-0.0654 1.35043,0.11851 2.02564,0.17776 -3.8672,-1.85424 -7.40641,-4.67178 -11.6016,-5.56273 -0.98838,-0.20991 -0.30606,2.00916 -0.63907,2.96313 -0.51851,1.48537 -1.16216,2.93124 -1.90302,4.31915 -1.63789,3.06843 -3.63518,5.73225 -5.82893,8.41167 -0.9,1.09926 -1.87435,2.13548 -2.81152,3.20321 -0.76502,0.77072 -1.45358,1.62574 -2.29505,2.31216 -3.81949,3.11569 -19.15381,-1.08007 11.48771,7.29159 1.00345,0.27416 1.15274,-1.74117 1.84943,-2.51364 2.19621,-2.43509 3.75538,-3.42197 6.36584,-5.4065 0.64846,-0.42058 4.82579,-3.26557 5.94418,-3.53544 0.48455,-0.11692 1.87966,0.64996 1.43198,0.43077 -4.37899,-2.14398 -8.44487,-5.34098 -13.24193,-6.21299 -1.34083,-0.24374 -1.41926,2.3377 -2.28454,3.39056 -1.1244,1.36815 -2.44254,2.56485 -3.66381,3.84728 -3.49682,2.97022 -4.26097,3.82192 -7.97291,6.24739 -0.96298,0.62924 -1.95018,1.23033 -2.98768,1.7272 -0.58573,0.28051 -2.37641,0.20395 -1.85603,0.59251 12.24974,9.14686 9.77426,10.83415 14.1618,4.78566 1.25955,-1.00869 2.44242,-2.12143 3.77866,-3.02608 2.86219,-1.93773 6.98825,-4.00729 10.17167,-5.33872 2.34509,-0.98082 5.15636,-1.98458 7.73845,-2.33999 0.50441,-0.0694 1.01766,0.0369 1.52648,0.0554 -4.46927,-2.23075 -8.50566,-5.73337 -13.40783,-6.69225 -1.65262,-0.32326 -2.42796,2.35318 -3.80259,3.32583 -5.11315,3.61789 -9.0941,5.44854 -14.96611,7.78759 -2.6172,1.04253 -5.28414,1.9628 -7.97232,2.80556 -2.23106,0.69945 -4.51651,1.21182 -6.77476,1.81773 -1.67377,0.1904 -3.33701,0.60106 -5.02131,0.5712 -0.9991,-0.0177 -3.84726,-1.06377 -2.91202,-0.71185 4.1321,1.55485 8.10485,4.44274 12.51827,4.32656 2.02586,-0.0533 2.33246,-3.34513 3.78742,-4.75581 3.71267,-3.59968 7.82947,-5.80884 12.18167,-8.49093 1.94154,-1.01881 3.8465,-2.1106 5.82463,-3.05643 2.41348,-1.154 4.78499,-2.39941 7.52734,-2.33321 0.3919,0.009 1.40972,0.68277 1.07176,0.48414 -4.19626,-2.46625 -8.43465,-4.86009 -12.65198,-7.29013 0,0 12.47138,7.34623 12.47138,7.34623 v 0 c -3.98763,-2.75807 -7.88358,-5.65364 -11.96289,-8.27421 -0.22674,-0.14566 0.31377,0.49644 0.26943,0.76225 -0.10715,0.64245 -0.29996,1.31058 -0.70078,1.82396 -1.8975,2.43033 -5.64532,4.92774 -7.91697,6.63828 -4.92527,3.31059 -7.59155,5.2937 -12.93397,8.07274 -2.1985,1.14362 -6.96651,0.62526 -6.7597,3.09477 1.56445,18.68146 5.44037,10.65486 8.91218,8.31098 1.01208,-0.68327 2.06866,-1.2982 3.10299,-1.94729 1.75413,-0.94908 3.47941,-1.95353 5.2624,-2.84722 4.69398,-2.35277 10.80248,-5.12907 15.72897,-6.74583 3.03314,-0.99541 6.13133,-1.79989 9.25083,-2.47776 2.33207,-0.50676 7.64891,1.24673 7.07897,-1.07071 -0.98699,-4.01318 -6.23062,-5.43126 -9.34593,-8.1469 0.65187,1.47128 0.79382,1.04232 -1.21449,2.64453 -1.092,0.87118 -2.28037,1.61998 -3.48364,2.32961 -5.037,2.9706 -10.45053,5.27799 -16.01128,7.0629 -7.79167,1.47819 -7.72875,0.44638 6.97419,8.5799 0.44431,0.24579 0.0815,-1.03942 0.31485,-1.4904 0.46524,-0.89918 1.09677,-1.70801 1.74317,-2.4872 2.66209,-3.20894 3.81252,-3.92698 7.11484,-6.76047 1.56736,-1.05811 3.05853,-2.23895 4.70208,-3.17434 1.4075,-0.80104 5.19252,-0.59391 4.41988,-2.01719 -2.11645,-3.89877 -6.72479,-5.78967 -10.17296,-8.58071 -0.31132,-0.25199 0.8828,0.57155 0.7408,0.94606 -0.29809,0.78617 -4.42054,4.20109 -4.61987,4.37417 -2.71053,1.99682 -4.23077,3.31253 -7.30701,4.77711 -1.09703,0.5223 -4.18087,0.28281 -3.42873,1.23704 2.68972,3.4124 6.99744,5.15287 10.49616,7.7293 -0.15539,-0.51313 -0.56818,-1.01303 -0.46619,-1.53938 0.20021,-1.03323 0.88013,-1.91205 1.3202,-2.86808 0.701,-1.20752 1.36058,-2.44005 2.10299,-3.62256 1.83422,-2.92153 3.79203,-5.70104 6.05768,-8.31018 1.07358,-1.23634 2.26541,-2.36486 3.4086,-3.53711 0.82676,-0.84777 3.24148,-1.59863 2.50112,-2.52282 -2.93232,-3.66042 -7.51347,-5.61576 -11.2702,-8.42363 -2.15211,0.93181 -4.30623,2.00862 -6.6253,2.4723 -1.0576,0.21146 -3.90493,-0.51327 -3.21976,0.31965 1.88545,2.292 12.79457,10.65703 7.53843,4.73764 0.1494,-1.38837 -0.008,-2.84529 0.44818,-4.16509 1.37954,-3.99237 5.68976,-10.09467 8.0681,-13.12641 6.329,-8.06772 13.78473,-15.18037 21.92932,-21.38868 5.44438,-3.50244 7.10801,-5.07255 12.80793,-7.16866 0.86428,-0.31784 3.37327,0.11214 2.71161,-0.52833 -3.29573,-3.19023 -7.30346,-5.61168 -11.328,-7.81224 -1.16017,-0.63436 0.52775,6.01762 -2.11699,3.35468 -0.85016,0.78107 -1.65634,1.61291 -2.55049,2.34322 -2.19235,1.79065 -3.81687,2.84576 -6.36417,4.04754 -0.68839,0.32478 -2.71038,0.27712 -2.14406,0.78569 11.68944,10.49743 11.11264,12.43576 11.95965,7.02198 0.34789,-0.48961 0.65728,-1.009 1.04368,-1.46883 0.90335,-1.07504 2.57859,-2.697 3.68707,-3.51427 0.67657,-0.49883 1.41626,-0.9076 2.1494,-1.31879 0.51842,-0.29076 2.06512,-0.41317 1.60121,-0.78477 -3.81999,-3.05986 -8.26621,-5.24309 -12.39932,-7.86464 -0.12202,0.14857 -0.21694,0.32436 -0.36606,0.4457 -0.81222,0.66093 -2.6846,1.60879 -3.7032,1.69568 -0.36169,0.0309 -0.70925,-0.15509 -1.06388,-0.23263 4.02799,2.44511 8.05597,4.89022 12.08396,7.33534 -1.64156,-5.20746 -0.24827,-1.17006 -13.00914,-8.06067 -0.19403,-0.10477 -0.40821,0.17847 -0.58251,0.31355 -0.22218,0.17218 -0.40561,0.38992 -0.59421,0.59836 -0.72142,0.79729 -1.36293,1.66481 -2.09236,2.45502 -1.20625,1.25892 -2.00692,2.20689 -3.4401,3.23699 -0.57066,0.41016 -2.35529,0.6071 -1.82061,1.06318 3.68736,3.14528 8.16644,5.22178 12.24965,7.83267 0.0652,-0.19934 0.0727,-0.42809 0.19564,-0.59803 0.2227,-0.30785 0.54274,-0.53188 0.81411,-0.79781 5.03295,-3.01649 1.14149,-0.29666 -11.07882,-8.12446 -0.2726,-0.17461 0.77831,0.0975 0.88328,0.40377 0.54035,1.57655 -0.92183,4.13085 -1.46553,5.17422 -0.71055,1.36357 -1.55546,2.6528 -2.33319,3.9792 -1.01443,1.47814 -1.95926,3.00655 -3.04329,4.43444 -2.60199,3.42735 -4.07219,4.89438 -7.10697,7.79221 -0.87803,0.8384 -3.55608,1.59365 -2.69518,2.44964 3.25684,3.23826 7.64398,5.30147 11.98857,6.79074 0.82316,0.28217 0.93798,-1.46595 1.40697,-2.19892 0.83794,-1.03416 1.64566,-2.09356 2.51382,-3.10249 3.5765,-4.15644 7.49134,-8.07595 12.04298,-11.17534 1.35957,-0.92579 4.98966,-0.98657 4.27343,-2.4673 -1.96058,-4.05323 -6.60517,-6.12062 -9.90776,-9.18094 0.10277,0.23225 0.35834,0.44776 0.3083,0.69675 -0.0851,0.42354 -0.43069,0.7498 -0.67108,1.10875 -0.36658,0.54736 -0.75076,1.0832 -1.14856,1.60831 -1.54157,2.03493 -3.34296,3.86912 -4.64844,6.07724 3.87408,2.88448 7.58729,5.99863 11.62223,8.65343 0.2726,0.17936 0.61064,-0.24411 0.88093,-0.42693 0.623,-0.42137 1.19873,-0.90894 1.78701,-1.37755 3.2956,-2.62517 6.44494,-5.45088 10.07514,-7.62777 1.38929,-0.68146 2.82943,-1.2678 4.16789,-2.04436 0.94081,-0.54586 3.46548,-1.19368 2.64626,-1.90919 -3.64035,-3.17951 -8.3393,-4.92781 -12.74644,-6.91239 -0.35522,-0.15996 -0.56844,0.53372 -0.86947,0.78101 -1.39355,1.14472 -1.97127,1.49111 -3.54172,2.58072 -1.81198,1.08138 -3.07885,1.98532 -5.13038,2.60679 -0.72084,0.21836 -2.79363,-0.16105 -2.23347,0.34246 3.36903,3.02831 7.46103,5.13977 11.19154,7.70966 -0.0182,-0.38986 -0.17109,-0.79703 -0.0548,-1.16957 0.21862,-0.70017 0.68502,-1.29725 1.02754,-1.94588 0.62768,-0.82226 1.20651,-1.68423 1.88304,-2.4668 1.48873,-1.72209 3.7584,-4.00846 5.72194,-5.18164 1.02074,-0.60987 4.03977,-0.44454 3.2935,-1.37025 -2.95894,-3.67042 -14.46725,-9.06463 -8.77113,-6.35484 0.12092,0.62641 0.39804,1.24224 0.36277,1.87924 -0.0994,1.79419 -1.29436,4.70717 -1.97722,6.19048 -1.93909,4.21208 -4.4889,8.10908 -7.38551,11.72019 -0.93904,1.05213 -1.84315,2.1365 -2.81712,3.15637 -0.73392,0.76852 -2.96783,1.37596 -2.30271,2.20475 9.30296,11.59214 8.39225,11.14129 14.42493,6.89479 2.4078,-1.40566 5.37029,-3.20977 8.16435,-3.63596 0.78156,-0.11921 2.96661,0.62729 2.36927,0.10939 -11.24777,-9.75175 -10.7604,-12.02587 -11.19054,-6.62949 -0.9975,1.51124 -1.12735,1.90957 -2.59203,3.17924 -0.5743,0.49784 -2.37355,0.77791 -1.8517,1.33048 3.26177,3.45384 7.5363,5.78591 11.30445,8.67887 -0.0541,-0.22054 -0.18635,-0.43579 -0.16239,-0.66161 0.0446,-0.42011 0.24102,-0.80985 0.36153,-1.21477 0.32199,-0.65808 0.61965,-1.32862 0.96596,-1.97423 0.89968,-1.67724 2.30849,-4.01603 3.38094,-5.53531 2.03796,-2.88705 2.15679,-2.76842 4.38799,-5.29052 0.4864,-0.54982 0.95461,-1.11546 1.43192,-1.67319 -3.98138,-2.89171 -7.81975,-5.99134 -11.94415,-8.67513 -0.21528,-0.14009 -0.35275,0.37352 -0.5341,0.55541 -0.22702,0.22767 -0.44353,0.46766 -0.69085,0.67309 -4.92253,4.08875 -8.62731,-1.82352 9.46889,8.29421 -0.33256,0.12105 -0.6838,0.52664 -0.99768,0.36316 -0.8993,-0.46837 -0.11747,-2.95845 -0.069,-3.14972 0.76875,-3.03088 2.03572,-5.98264 3.47858,-8.74522 4.42425,-6.28735 2.95957,-2.46392 -9.78129,-11.27692 -0.26648,-0.18433 0.18628,0.63684 0.15605,0.95944 -0.16684,1.77993 -1.15164,4.40759 -1.75465,5.85256 -0.71895,1.72282 -1.56496,3.38983 -2.34744,5.08474 -2.87648,5.42681 -4.00881,7.90611 -7.58925,13.12615 -1.61932,2.36087 -3.3991,4.60836 -5.15684,6.86808 -3.92853,5.05045 -8.05052,9.97802 -12.60025,14.48431 -5.73056,5.09447 -4.00676,2.22407 9.6989,9.99432 0.29003,0.16443 0.14866,-0.65299 0.27386,-0.96199 0.98373,-2.4279 2.46652,-4.63516 3.78736,-6.8797 2.37773,-3.48723 1.9903,-3.11487 4.8,-6.41198 1.96031,-2.30039 2.65098,-3.06475 4.86394,-4.95713 0.54078,-0.46244 1.09521,-0.91289 1.68709,-1.30785 0.37737,-0.25182 0.8061,-0.41654 1.20915,-0.6248 0,0 -12.42906,-7.73983 -12.42906,-7.73983 z" /><path
   style="fill:#000000;stroke:none;stroke-width:26.691"
   d="m 167.89154,246.79304 c -3.84344,0.58053 -2.20396,-0.28422 -3.15641,6.3709 -0.11871,0.82945 0,1.67581 0,2.51372 0,0.27639 -0.2761,0.8166 0,0.82917 0.11658,0.005 0.1593,-0.17084 0.23282,-0.26147 0.3773,-0.46512 0.82905,-0.8816 1.11934,-1.40546 0.53443,-0.96441 0.87765,-2.02317 1.33627,-3.02585 0.69051,-1.50964 1.57209,-2.9405 2.11093,-4.51068 0.18004,-0.52462 0.56168,-4.28779 0.34302,-4.56505 -0.83297,-1.05618 -5.03544,-0.28383 -5.36278,-0.18941 -5.01804,1.44743 -11.62841,5.85322 -10.43081,12.02505 0.65442,3.37253 5.4507,2.0861 6.92785,0.12699 2.47479,-3.28223 4.83176,-6.67945 6.79582,-10.29056 1.65284,-3.03893 5.47058,-10.49571 5.61482,-15.40659 0.003,-0.0856 -0.19627,-0.0605 -0.25679,0 -0.89689,0.89689 -1.80378,1.79711 -2.5592,2.81601 -1.12948,1.52341 -2.20661,3.10057 -3.07673,4.78562 -3.57848,6.92995 -5.65152,12.82201 -7.53922,20.49266 -0.35324,1.43539 -0.26127,2.94505 -0.42089,4.41462 -0.0996,0.91738 -0.41484,1.8243 -0.35677,2.74525 0.0407,0.64602 1.47694,0.19347 1.92212,-0.27645 1.04052,-1.09834 1.70615,-2.50193 2.64228,-3.69051 1.76718,-2.24373 4.13862,-4.46334 6.11833,-6.44303"
   id="path526" /><path
   style="fill:#ffffff;stroke:none;stroke-width:26.691"
   d="m 185.50599,211.51446 c -4.45603,-0.01 -10.921,4.60391 -14.25375,7.35476 -5.86478,4.84081 -10.31387,11.75328 -12.726,18.93009 -0.49842,1.48294 -1.5615,9.27858 -1.62592,10.31748 -0.13657,2.20222 -0.29508,4.43272 0,6.61936 0.31158,2.30894 1.04381,4.55048 1.80451,6.75267 1.73885,5.03393 3.5651,8.98257 7.52525,12.73345 6.16796,5.84201 16.54142,4.6889 23.89074,4.68893 3.61797,10e-6 4.46658,-0.25195 7.30025,-0.81869"
   id="path528" /><path
   style="fill:#ffffff;stroke:none;stroke-width:26.691"
   d="m 155.76234,190.38147 c -9.95989,-0.75364 -17.89079,5.78788 -25.50023,11.4103 -9.32258,6.88822 -8.56721,5.65656 -17.74342,15.14241 -8.26602,8.54493 -6.92684,8.32099 -14.118778,17.37417 -0.548761,0.69078 -1.366388,1.14814 -1.871497,1.87145 -2.643276,3.78515 -8.874794,15.26934 -9.500607,19.43266 -0.336198,2.23661 -0.431791,4.50887 -0.445468,6.77056 -0.02478,4.0975 0.906933,8.20291 2.753816,11.85191 1.199427,2.36977 2.340163,4.78592 3.810248,6.99801 0.952366,1.43305 2.275061,2.58199 3.413668,3.87204 0.921785,1.04438 1.78119,2.14759 2.767508,3.13126 1.55944,1.55526 2.54847,2.10502 4.39009,3.16223 9.81714,5.6357 11.00731,7.28554 19.84547,9.92397 3.33193,0.99467 6.67363,2.00463 10.09287,2.63706 2.14308,0.39639 4.34514,0.49721 6.52372,0.43638 8.1676,-0.22807 14.97199,-1.55656 21.12417,-7.25477 9.20842,-8.52892 13.38202,-17.94261 17.54005,-29.71587 2.14269,-6.06692 3.88764,-14.03979 5.20088,-20.39132 0.737,-3.56447 1.74181,-7.09538 2.08148,-10.71936 0.89764,-9.5771 1.22423,-19.20072 1.62365,-28.81149 0.34385,-8.27372 1.3031,-29.44635 -9.36423,-32.6545 -1.68225,-0.50593 -3.58335,-0.33828 -5.22072,0.2762 -1.56651,0.5879 -0.59906,0.54712 -1.36779,0.54712"
   id="path530" /><path
   style="fill:#ffffff;stroke:none;stroke-width:26.691"
   id="path809"
   d="m 181.22275,220.47283 c 0.1001,0.14544 0.0505,0.0913 0.18783,0.21438 0.0266,0.0238 0.0658,0.0377 0.0811,0.07 0.0103,0.0217 -0.005,0.0487 -0.0144,0.0706 -0.021,0.047 -0.0569,0.0864 -0.077,0.13374 -0.0392,0.0925 -0.0667,0.18948 -0.1,0.28422 2.58514,1.49493 10.97851,11.62822 12.26008,6.6917 0.0222,-0.0854 0.034,-0.1732 0.048,-0.26033 0.0112,-0.0701 0.0473,-0.38923 0.0711,-0.46276 0.0123,-0.0381 0.0437,-0.0671 0.0656,-0.10061 0.27946,-0.0629 -0.0182,-0.004 0.29923,-0.0381 0.0644,-0.007 0.1321,-0.005 0.19179,-0.0304 0.0759,-0.0318 0.13717,-0.0909 0.20576,-0.13642 0,0 -13.0834,-6.00378 -13.0834,-6.00378 v 0 c 0.0711,-0.0396 0.13547,-0.0953 0.21343,-0.11876 0.0623,-0.0187 0.13014,-0.008 0.19502,-0.004 0.0984,0.006 0.19319,0.0447 0.29311,0.04 0.0182,-0.0175 0.0467,-0.0286 0.0545,-0.0527 0.0269,-0.082 0.0215,-0.30199 0.0248,-0.37953 0.003,-0.0789 0.003,-0.15851 0.0149,-0.23656 0.71996,-4.58248 15.93537,-12.95835 12.19861,6.69709 -0.0383,0.0883 -0.0701,0.17974 -0.11483,0.26495 -0.0215,0.0408 -0.0583,0.0718 -0.0826,0.11094 -0.009,0.0138 -0.0248,0.0331 -0.0153,0.0462 0.0184,0.0255 0.056,0.0288 0.0822,0.0463 0.12762,0.0854 0.0998,0.0683 0.19017,0.18513 0,0 -13.1897,-7.03122 -13.1897,-7.03122 z" /><path
   style="fill:#ffffff;stroke:none;stroke-width:26.691"
   id="path811"
   d="m 181.75445,219.69284 c 0.24116,0.2867 0.0514,0.0747 0.54838,0.51568 0.10788,0.0957 0.21912,0.18801 0.32135,0.28975 0.045,0.0448 0.093,0.0908 0.1192,0.14865 0.009,0.0195 -0.005,0.0506 -0.0251,0.0592 -0.0343,0.0151 -0.075,8.6e-4 -0.11247,0.001 -0.0499,-0.008 -0.10072,-0.0113 -0.14961,-0.024 -0.0726,-0.0188 -0.14288,-0.046 -0.2139,-0.0703 -0.72412,-0.24754 0.24655,0.0774 -0.43372,-0.14931 0,0 11.75842,7.14431 11.75842,7.14431 v 0 c -0.0614,-0.032 -0.12359,-0.0624 -0.18405,-0.0961 -0.0647,-0.036 -0.12824,-0.0741 -0.1912,-0.11302 -0.14523,-0.0899 -0.1486,-0.0949 -0.26498,-0.17962 -0.017,-0.0153 -0.045,-0.0239 -0.0508,-0.046 -0.004,-0.0141 0.029,0.005 0.0419,0.012 0.0636,0.0326 0.12653,0.0669 0.18697,0.10508 0.3066,0.19369 0.57547,0.38581 0.85981,0.61592 0.0462,0.0374 0.0837,0.0845 0.1255,0.12675 0,0 -12.33566,-8.34031 -12.33566,-8.34031 z" /></svg>
